#!OML:ASF E:\Steps\Project 1\Capture day 1\Session 2\Subject.ASF
:FULLY-SPECIFIED
:DEGREES
729
root 6.41651 15.1667 -11.382 -326.522 75.758 7.6722
lowerback -27.156 1.35196 -7.60491
upperback 0.318421 5.10793 -4.47075
thorax 14.658 1.99446 1.22306
lowerneck 4.46145 1.9923 -7.15267
upperneck 7.22228 2.27959 6.70404
head 1.3635 1.10656 3.43823
rclavicle -4.65156e-014 9.85972e-014
rhumerus -26.1827 -8.43038 -88.3265
rradius 35.6937
rwrist -3.7612
rhand -6.88929 -52.5405
rfingers 7.12502
rthumb 18.9773 -81.6348
lclavicle -4.65156e-014 9.85972e-014
lhumerus -39.2858 25.7632 61.9159
lradius 9.16134
lwrist -24.9984
lhand -20.7054 -9.96803
lfingers 7.12502
lthumb 5.65878 19.9364
rfemur -3.44017 8.64603 18.2922
rtibia 13.9063
rfoot -25.5289 -2.80658
rtoes -35.1579
lfemur -53.1018 -5.56625 -10.1057
ltibia 13.4529
lfoot -2.19594 14.1602
ltoes -35.4505
730
root 6.59126 15.1644 -11.3889 -325.749 75.7028 8.39173
lowerback -27.3062 1.2581 -7.96029
upperback 0.283373 5.12291 -4.50129
thorax 14.6581 1.97912 1.38912
lowerneck 4.40138 1.958 -7.12686
upperneck 7.23497 2.23664 6.72602
head 1.38148 1.08681 3.44254
rclavicle 1.59028e-015 1.59028e-014
rhumerus -26.3095 -8.63091 -88.1887
rradius 35.9744
rwrist -3.83746
rhand -7.00229 -52.6384
rfingers 7.12502
rthumb 18.8686 -81.7432
lclavicle 1.59028e-015 1.59028e-014
lhumerus -39.1305 25.6656 62.1263
lradius 8.51483
lwrist -24.9876
lhand -21.1919 -9.30807
lfingers 7.12502
lthumb 5.18904 20.6084
rfemur -3.34837 8.33827 17.8591
rtibia 14.7503
rfoot -24.9049 -2.25359
rtoes -34.8112
lfemur -53.001 -5.24359 -11.2053
ltibia 13.9571
lfoot -0.307164 13.495
ltoes -39.5503
731
root 6.76686 15.1699 -11.3933 -325.094 75.6805 9.01454
lowerback -27.3808 1.19272 -8.28576
upperback 0.208132 5.16271 -4.57749
thorax 14.5807 1.98493 1.49474
lowerneck 4.57305 1.81122 -7.08387
upperneck 7.25087 2.0269 6.91554
head 1.37119 0.984879 3.50059
rclavicle 1.03368e-014 9.54166e-015
rhumerus -26.6498 -7.52365 -88.3093
rradius 36.5976
rwrist -5.16496
rhand -7.3562 -53.2243
rfingers 7.12502
rthumb 18.5282 -82.362
lclavicle 1.03368e-014 9.54166e-015
lhumerus -38.6379 25.6333 62.5356
lradius 7.46185
lwrist -24.8883
lhand -21.9675 -8.92761
lfingers 7.12502
lthumb 4.44014 21.0058
rfemur -3.29722 8.53317 17.604
rtibia 15.7719
rfoot -24.1245 -2.16113
rtoes -34.858
lfemur -52.9558 -4.85261 -12.2752
ltibia 14.7078
lfoot 0.903641 12.4806
ltoes -43.1932
732
root 6.94502 15.1787 -11.3991 -323.88 75.6865 10.29
lowerback -27.3619 1.09281 -8.6185
upperback 0.135367 5.16998 -4.76631
thorax 14.4753 1.98396 1.46711
lowerneck 4.47143 1.86248 -6.938
upperneck 7.44093 2.10923 6.78473
head 1.44697 1.03067 3.43038
rclavicle -2.46493e-014 4.77083e-015
rhumerus -26.8513 -8.20903 -88.3705
rradius 36.5616
rwrist -4.91646
rhand -7.50165 -52.9295
rfingers 7.12502
rthumb 18.3883 -82.0804
lclavicle -2.46493e-014 4.77083e-015
lhumerus -38.242 25.4879 62.6897
lradius 6.56594
lwrist -24.6627
lhand -22.3048 -8.77976
lfingers 7.12502
lthumb 4.11439 21.1603
rfemur -3.12347 8.30244 17.1248
rtibia 16.6057
rfoot -22.9985 -1.70893
rtoes -35.3651
lfemur -52.8575 -5.01917 -13.1209
ltibia 15.6621
lfoot 0.930028 11.6108
ltoes -42.4265
733
root 7.10461 15.2055 -11.4028 -322.337 76.0446 11.6658
lowerback -27.2999 0.880034 -8.97834
upperback 0.0162735 5.0104 -4.85051
thorax 14.2921 1.90814 1.50297
lowerneck 4.39599 1.83642 -6.89842
upperneck 7.53335 2.07902 6.78192
head 1.4931 1.01829 3.42477
rclavicle -1.07344e-014 3.49861e-014
rhumerus -27.0534 -10.0109 -88.137
rradius 36.5372
rwrist -3.71446
rhand -7.11175 -52.4216
rfingers 7.12502
rthumb 18.7633 -81.5366
lclavicle -1.07344e-014 3.49861e-014
lhumerus -37.8919 25.2398 62.8566
lradius 5.925
lwrist -24.401
lhand -22.7173 -8.27699
lfingers 7.12502
lthumb 3.71614 21.6704
rfemur -3.62885 8.50674 17.0493
rtibia 18.1685
rfoot -21.9027 -2.27825
rtoes -36.4772
lfemur -53.3063 -5.46288 -13.6743
ltibia 17.0423
lfoot 0.955298 10.3751
ltoes -41.7842
734
root 7.2765 15.2302 -11.4178 -320.957 76.4363 12.8723
lowerback -27.4366 0.741118 -9.18202
upperback -0.0406394 4.92172 -4.89635
thorax 14.2839 1.86105 1.53223
lowerneck 4.46948 1.78619 -6.89049
upperneck 7.42347 2.00891 6.81386
head 1.44927 0.982711 3.43218
rclavicle 3.89618e-014 -2.70347e-014
rhumerus -27.5374 -9.55522 -88.0682
rradius 37.0289
rwrist -4.90231
rhand -6.73501 -52.063
rfingers 7.12502
rthumb 19.1257 -81.1426
lclavicle 3.89618e-014 -2.70347e-014
lhumerus -37.3728 24.9628 63.2641
lradius 5.18459
lwrist -24.374
lhand -23.2156 -7.78581
lfingers 7.12502
lthumb 3.23489 22.1694
rfemur -4.31178 7.19637 16.5858
rtibia 19.957
rfoot -20.6719 -1.30164
rtoes -36.6268
lfemur -53.6556 -6.09067 -14.0975
ltibia 18.2799
lfoot 1.01297 9.36494
ltoes -41.4565
735
root 7.45782 15.2493 -11.4338 -319.316 76.7108 14.5759
lowerback -27.5038 0.56255 -9.51266
upperback 0.00684211 4.81679 -4.91749
thorax 14.3508 1.78927 1.64823
lowerneck 4.03197 1.70068 -6.75356
upperneck 7.89934 1.91551 6.79324
head 1.69073 0.947893 3.41418
rclavicle 1.19271e-015 -4.77083e-015
rhumerus -27.8871 -9.66797 -87.8656
rradius 37.1789
rwrist -5.58726
rhand -6.8319 -51.5134
rfingers 7.12502
rthumb 19.0325 -80.6022
lclavicle 1.19271e-015 -4.77083e-015
lhumerus -36.7434 24.8989 63.7468
lradius 4.28184
lwrist -24.5613
lhand -23.0355 -7.6555
lfingers 7.12502
lthumb 3.40885 22.297
rfemur -4.42012 7.40003 16.408
rtibia 21.2931
rfoot -18.9484 -2.14709
rtoes -38.3342
lfemur -53.5525 -6.57043 -14.8623
ltibia 19.1996
lfoot 1.08087 8.61983
ltoes -41.4994
736
root 7.60999 15.2896 -11.4276 -317.873 77.3564 15.9976
lowerback -27.2203 0.251135 -9.90656
upperback -0.0238348 4.48157 -4.83254
thorax 14.1611 1.62265 1.81563
lowerneck 4.21708 1.6852 -6.7547
upperneck 7.54102 1.88991 6.78003
head 1.54222 0.930037 3.40094
rclavicle 6.75868e-015 3.97569e-014
rhumerus -28.1132 -10.0123 -87.708
rradius 37.0711
rwrist -5.89151
rhand -7.29578 -51.4138
rfingers 7.12502
rthumb 18.5863 -80.5458
lclavicle 6.75868e-015 3.97569e-014
lhumerus -35.9991 24.8388 64.1276
lradius 3.41842
lwrist -24.6056
lhand -22.9575 -7.45367
lfingers 7.12502
lthumb 3.48418 22.4976
rfemur -5.3643 6.41143 16.3864
rtibia 23.6786
rfoot -17.269 -1.99378
rtoes -38.7965
lfemur -53.7491 -6.62086 -15.5111
ltibia 20.3602
lfoot 1.34709 7.67929
ltoes -44.2525
737
root 7.78017 15.3173 -11.4305 -317.967 77.6962 15.8425
lowerback -27.3037 0.303264 -9.78915
upperback -0.022486 4.53812 -4.90059
thorax 14.2156 1.65645 1.70381
lowerneck 4.09749 1.52452 -6.57853
upperneck 7.80239 1.68003 6.87099
head 1.66514 0.835929 3.40652
rclavicle -4.09496e-014 1.11319e-014
rhumerus -28.3895 -10.4327 -87.6367
rradius 36.959
rwrist -6.04864
rhand -7.4769 -51.3825
rfingers 7.12502
rthumb 18.4121 -80.5312
lclavicle -4.09496e-014 1.11319e-014
lhumerus -35.1308 24.4618 64.4878
lradius 2.75925
lwrist -24.5474
lhand -23.3316 -7.09721
lfingers 7.12502
lthumb 3.12288 22.8597
rfemur -6.23879 6.38981 16.6546
rtibia 25.8683
rfoot -15.1686 -2.4575
rtoes -39.2317
lfemur -53.6382 -7.02996 -15.406
ltibia 21.1616
lfoot 1.26175 7.97987
ltoes -44.9507
738
root 7.95479 15.3478 -11.4474 -318.61 78.0718 15.1231
lowerback -27.4868 0.468759 -9.4028
upperback -0.0057795 4.66096 -4.92372
thorax 14.3509 1.72988 1.52682
lowerneck 4.23704 1.43027 -6.49609
upperneck 7.6379 1.55051 6.93267
head 1.59606 0.772254 3.40839
rclavicle -2.14687e-014 5.725e-014
rhumerus -28.7865 -11.14 -87.4373
rradius 36.9757
rwrist -5.87484
rhand -7.3047 -51.46
rfingers 7.12502
rthumb 18.5777 -80.5929
lclavicle -2.14687e-014 5.725e-014
lhumerus -34.3977 24.001 64.9496
lradius 2.36887
lwrist -24.5117
lhand -23.3 -6.91197
lfingers 7.12502
lthumb 3.15338 23.0445
rfemur -7.30372 5.60999 16.7988
rtibia 28.2833
rfoot -12.9371 -2.25697
rtoes -38.9426
lfemur -53.4394 -7.43523 -15.2609
ltibia 21.7929
lfoot 1.1093 8.10576
ltoes -44.3771
739
root 8.11007 15.3889 -11.468 -317.692 78.1579 16.2258
lowerback -27.1584 0.536797 -9.52474
upperback -0.000344631 4.763 -5.03085
thorax 14.1917 1.78183 1.50235
lowerneck 4.31288 1.28415 -6.45151
upperneck 7.57154 1.34868 7.08185
head 1.57559 0.674288 3.45134
rclavicle 1.15295e-014 -7.95139e-015
rhumerus -29.2616 -11.7138 -87.2586
rradius 37.1486
rwrist -5.9108
rhand -6.90645 -51.7307
rfingers 7.12502
rthumb 18.9608 -80.8265
lclavicle 1.15295e-014 -7.95139e-015
lhumerus -33.848 23.6019 65.3456
lradius 2.25379
lwrist -24.2985
lhand -22.8752 -6.91093
lfingers 7.12502
lthumb 3.56364 23.039
rfemur -8.52756 4.50311 16.3045
rtibia 31.2225
rfoot -10.854 -1.78984
rtoes -38.3083
lfemur -52.9463 -7.47944 -16.1432
ltibia 22.3176
lfoot 1.34087 7.10188
ltoes -47.6482
740
root 8.2699 15.4247 -11.4848 -317.546 78.2141 16.3676
lowerback -27.1317 0.635465 -9.43628
upperback -0.0201541 4.88099 -5.15095
thorax 14.1686 1.84879 1.36804
lowerneck 4.5516 1.05362 -6.42764
upperneck 7.41612 1.0225 7.38856
head 1.5066 0.513266 3.5517
rclavicle 9.93923e-015 -2.06736e-014
rhumerus -29.6702 -11.6796 -87.2378
rradius 37.4209
rwrist -6.83292
rhand -6.79689 -51.85
rfingers 7.12502
rthumb 19.0662 -80.9354
lclavicle 9.93923e-015 -2.06736e-014
lhumerus -33.2919 23.2998 65.6622
lradius 2.26115
lwrist -23.8903
lhand -22.1964 -6.94234
lfingers 7.12502
lthumb 4.21914 22.9956
rfemur -9.79761 4.24418 16.1965
rtibia 33.8902
rfoot -8.69423 -2.0329
rtoes -38.2878
lfemur -52.4948 -7.61084 -16.5629
ltibia 22.6348
lfoot 1.19869 6.50464
ltoes -48.6772
741
root 8.42979 15.4555 -11.4981 -318.066 78.2538 15.8628
lowerback -27.1684 0.743646 -9.31067
upperback 0.00342991 4.99113 -5.16591
thorax 14.2196 1.90316 1.32746
lowerneck 4.38877 1.00351 -6.43321
upperneck 7.42664 0.960409 7.40723
head 1.54364 0.484391 3.56159
rclavicle -2.70347e-014 1.00187e-013
rhumerus -29.8649 -11.3686 -87.1214
rradius 37.6174
rwrist -8.06868
rhand -7.01046 -51.9569
rfingers 7.12502
rthumb 18.8608 -81.0625
lclavicle -2.70347e-014 1.00187e-013
lhumerus -32.7308 23.1166 66.0528
lradius 2.34492
lwrist -23.4346
lhand -21.7259 -6.8753
lfingers 7.12502
lthumb 4.67343 23.0532
rfemur -11.2492 3.55749 16.1105
rtibia 36.8364
rfoot -6.53523 -1.90867
rtoes -38.234
lfemur -51.8901 -7.93513 -16.5152
ltibia 22.7605
lfoot 0.713684 6.65089
ltoes -44.6529
742
root 8.58596 15.4813 -11.5136 -318.058 78.2825 15.9219
lowerback -27.1691 0.768666 -9.35404
upperback 0.051783 5.03285 -5.12024
thorax 14.2639 1.91231 1.41543
lowerneck 4.49889 0.925387 -6.43057
upperneck 7.30197 0.849273 7.53047
head 1.49178 0.428308 3.60237
rclavicle 2.94201e-014 -1.145e-013
rhumerus -29.9861 -11.0272 -86.9321
rradius 37.48
rwrist -8.60691
rhand -6.76898 -51.7743
rfingers 7.12502
rthumb 19.093 -80.8571
lclavicle 2.94201e-014 -1.145e-013
lhumerus -32.3444 23.0062 66.4367
lradius 2.70814
lwrist -23.0261
lhand -21.6194 -6.52657
lfingers 7.12502
lthumb 4.77625 23.3996
rfemur -12.7263 2.74367 15.8961
rtibia 39.8227
rfoot -4.195 -1.78726
rtoes -38.142
lfemur -51.2572 -8.1121 -16.8321
ltibia 22.9029
lfoot 0.350806 6.57137
ltoes -41.889
743
root 8.73961 15.5048 -11.5314 -317.212 78.2669 16.7928
lowerback -27.1667 0.714222 -9.48745
upperback 0.0531112 5.00655 -5.1259
thorax 14.254 1.89287 1.46978
lowerneck 4.29853 1.07361 -6.37477
upperneck 7.2714 1.0673 7.25566
head 1.50068 0.535909 3.49489
rclavicle -3.37934e-014 7.79236e-014
rhumerus -30.2075 -11.3556 -86.658
rradius 37.3233
rwrist -7.83519
rhand -5.81838 -51.6341
rfingers 7.12502
rthumb 20.0069 -80.6241
lclavicle -3.37934e-014 7.79236e-014
lhumerus -32.1666 22.9215 66.6479
lradius 3.26974
lwrist -22.8255
lhand -21.3685 -6.35439
lfingers 7.12502
lthumb 5.01859 23.5662
rfemur -14.2669 2.12632 15.6044
rtibia 42.7845
rfoot -1.76884 -2.01485
rtoes -37.6772
lfemur -50.634 -8.07972 -17.6116
ltibia 22.9896
lfoot -0.0196496 6.16403
ltoes -41.1774
